<svg id="visual" viewBox="0 0 1920 1080" width="1920" height="1080" xmlns="http://www.w3.org/2000/svg" xmlns:xlink="http://www.w3.org/1999/xlink" version="1.1"><rect x="0" y="0" width="1920" height="1080" fill="#ffffff"></rect><path d="M0 832L45.7 813.2C91.3 794.3 182.7 756.7 274.2 743C365.7 729.3 457.3 739.7 548.8 768C640.3 796.3 731.7 842.7 823 860.8C914.3 879 1005.7 869 1097 858.2C1188.3 847.3 1279.7 835.7 1371.2 810.7C1462.7 785.7 1554.3 747.3 1645.8 755.8C1737.3 764.3 1828.7 819.7 1874.3 847.3L1920 875L1920 1081L1874.3 1081C1828.7 1081 1737.3 1081 1645.8 1081C1554.3 1081 1462.7 1081 1371.2 1081C1279.7 1081 1188.3 1081 1097 1081C1005.7 1081 914.3 1081 823 1081C731.7 1081 640.3 1081 548.8 1081C457.3 1081 365.7 1081 274.2 1081C182.7 1081 91.3 1081 45.7 1081L0 1081Z" fill="#bbffde"></path><path d="M0 884L45.7 887C91.3 890 182.7 896 274.2 871.7C365.7 847.3 457.3 792.7 548.8 775.7C640.3 758.7 731.7 779.3 823 799.2C914.3 819 1005.7 838 1097 853.3C1188.3 868.7 1279.7 880.3 1371.2 883.2C1462.7 886 1554.3 880 1645.8 874.8C1737.3 869.7 1828.7 865.3 1874.3 863.2L1920 861L1920 1081L1874.3 1081C1828.7 1081 1737.3 1081 1645.8 1081C1554.3 1081 1462.7 1081 1371.2 1081C1279.7 1081 1188.3 1081 1097 1081C1005.7 1081 914.3 1081 823 1081C731.7 1081 640.3 1081 548.8 1081C457.3 1081 365.7 1081 274.2 1081C182.7 1081 91.3 1081 45.7 1081L0 1081Z" fill="#aaffd4"></path><path d="M0 926L45.7 905C91.3 884 182.7 842 274.2 821C365.7 800 457.3 800 548.8 808.3C640.3 816.7 731.7 833.3 823 855.5C914.3 877.7 1005.7 905.3 1097 905.3C1188.3 905.3 1279.7 877.7 1371.2 863.8C1462.7 850 1554.3 850 1645.8 848.5C1737.3 847 1828.7 844 1874.3 842.5L1920 841L1920 1081L1874.3 1081C1828.7 1081 1737.3 1081 1645.8 1081C1554.3 1081 1462.7 1081 1371.2 1081C1279.7 1081 1188.3 1081 1097 1081C1005.7 1081 914.3 1081 823 1081C731.7 1081 640.3 1081 548.8 1081C457.3 1081 365.7 1081 274.2 1081C182.7 1081 91.3 1081 45.7 1081L0 1081Z" fill="#98feca"></path><path d="M0 833L45.7 849.5C91.3 866 182.7 899 274.2 916.2C365.7 933.3 457.3 934.7 548.8 926C640.3 917.3 731.7 898.7 823 893.2C914.3 887.7 1005.7 895.3 1097 903.5C1188.3 911.7 1279.7 920.3 1371.2 927.5C1462.7 934.7 1554.3 940.3 1645.8 931.2C1737.3 922 1828.7 898 1874.3 886L1920 874L1920 1081L1874.3 1081C1828.7 1081 1737.3 1081 1645.8 1081C1554.3 1081 1462.7 1081 1371.2 1081C1279.7 1081 1188.3 1081 1097 1081C1005.7 1081 914.3 1081 823 1081C731.7 1081 640.3 1081 548.8 1081C457.3 1081 365.7 1081 274.2 1081C182.7 1081 91.3 1081 45.7 1081L0 1081Z" fill="#86fdbf"></path><path d="M0 951L45.7 953C91.3 955 182.7 959 274.2 947.2C365.7 935.3 457.3 907.7 548.8 908.7C640.3 909.7 731.7 939.3 823 950.2C914.3 961 1005.7 953 1097 941.8C1188.3 930.7 1279.7 916.3 1371.2 913C1462.7 909.7 1554.3 917.3 1645.8 912.8C1737.3 908.3 1828.7 891.7 1874.3 883.3L1920 875L1920 1081L1874.3 1081C1828.7 1081 1737.3 1081 1645.8 1081C1554.3 1081 1462.7 1081 1371.2 1081C1279.7 1081 1188.3 1081 1097 1081C1005.7 1081 914.3 1081 823 1081C731.7 1081 640.3 1081 548.8 1081C457.3 1081 365.7 1081 274.2 1081C182.7 1081 91.3 1081 45.7 1081L0 1081Z" fill="#72fdb3"></path><path d="M0 929L45.7 934.5C91.3 940 182.7 951 274.2 956.5C365.7 962 457.3 962 548.8 964.2C640.3 966.3 731.7 970.7 823 977.7C914.3 984.7 1005.7 994.3 1097 989C1188.3 983.7 1279.7 963.3 1371.2 951.5C1462.7 939.7 1554.3 936.3 1645.8 948.2C1737.3 960 1828.7 987 1874.3 1000.5L1920 1014L1920 1081L1874.3 1081C1828.7 1081 1737.3 1081 1645.8 1081C1554.3 1081 1462.7 1081 1371.2 1081C1279.7 1081 1188.3 1081 1097 1081C1005.7 1081 914.3 1081 823 1081C731.7 1081 640.3 1081 548.8 1081C457.3 1081 365.7 1081 274.2 1081C182.7 1081 91.3 1081 45.7 1081L0 1081Z" fill="#5dfca7"></path><path d="M0 1026L45.7 1015.7C91.3 1005.3 182.7 984.7 274.2 979.7C365.7 974.7 457.3 985.3 548.8 988.3C640.3 991.3 731.7 986.7 823 984.5C914.3 982.3 1005.7 982.7 1097 991.8C1188.3 1001 1279.7 1019 1371.2 1023.2C1462.7 1027.3 1554.3 1017.7 1645.8 1012.2C1737.3 1006.7 1828.7 1005.3 1874.3 1004.7L1920 1004L1920 1081L1874.3 1081C1828.7 1081 1737.3 1081 1645.8 1081C1554.3 1081 1462.7 1081 1371.2 1081C1279.7 1081 1188.3 1081 1097 1081C1005.7 1081 914.3 1081 823 1081C731.7 1081 640.3 1081 548.8 1081C457.3 1081 365.7 1081 274.2 1081C182.7 1081 91.3 1081 45.7 1081L0 1081Z" fill="#43fa9a"></path><path d="M0 1052L45.7 1047.3C91.3 1042.7 182.7 1033.3 274.2 1025.7C365.7 1018 457.3 1012 548.8 1016.7C640.3 1021.3 731.7 1036.7 823 1045.8C914.3 1055 1005.7 1058 1097 1049.7C1188.3 1041.3 1279.7 1021.7 1371.2 1014.8C1462.7 1008 1554.3 1014 1645.8 1014C1737.3 1014 1828.7 1008 1874.3 1005L1920 1002L1920 1081L1874.3 1081C1828.7 1081 1737.3 1081 1645.8 1081C1554.3 1081 1462.7 1081 1371.2 1081C1279.7 1081 1188.3 1081 1097 1081C1005.7 1081 914.3 1081 823 1081C731.7 1081 640.3 1081 548.8 1081C457.3 1081 365.7 1081 274.2 1081C182.7 1081 91.3 1081 45.7 1081L0 1081Z" fill="#18f98c"></path></svg>